<mxfile host="app.diagrams.net" agent="Mozilla/5.0 (Windows NT 10.0; Win64; x64) AppleWebKit/537.36 (KHTML, like Gecko) Chrome/135.0.0.0 Safari/537.36" version="26.2.9">
  <diagram id="Ht1M8jgEwFfnCIfOTk4-" name="Page-1">
    <mxGraphModel dx="1428" dy="743" grid="1" gridSize="11" guides="1" tooltips="1" connect="1" arrows="1" fold="1" page="1" pageScale="1" pageWidth="1169" pageHeight="827" math="0" shadow="0">
      <root>
        <mxCell id="0" />
        <mxCell id="1" parent="0" />
        <mxCell id="fdkoNqw9oe1VA67Y62dj-26" value="" style="rounded=1;whiteSpace=wrap;html=1;fillColor=#d0cee2;strokeColor=#56517e;" parent="1" vertex="1">
          <mxGeometry x="154" y="22" width="761" height="649" as="geometry" />
        </mxCell>
        <mxCell id="fdkoNqw9oe1VA67Y62dj-14" value="" style="rounded=1;whiteSpace=wrap;html=1;fillColor=#bac8d3;strokeColor=#23445d;" parent="1" vertex="1">
          <mxGeometry x="946" y="22" width="198" height="132" as="geometry" />
        </mxCell>
        <mxCell id="fdkoNqw9oe1VA67Y62dj-11" value="" style="rounded=1;whiteSpace=wrap;html=1;fillColor=#dae8fc;strokeColor=#6c8ebf;" parent="1" vertex="1">
          <mxGeometry x="946" y="198" width="198" height="473" as="geometry" />
        </mxCell>
        <mxCell id="fdkoNqw9oe1VA67Y62dj-7" value="OpenShift Silver Cluster&lt;div&gt;&lt;br&gt;&lt;/div&gt;" style="sketch=0;aspect=fixed;html=1;points=[];align=center;image;fontSize=12;image=img/lib/mscae/OpenShift.svg;" parent="1" vertex="1">
          <mxGeometry x="1018" y="209" width="50" height="46" as="geometry" />
        </mxCell>
        <mxCell id="j_-tF6pHI3zdOywG5t-4-3" style="edgeStyle=orthogonalEdgeStyle;rounded=1;orthogonalLoop=1;jettySize=auto;html=1;curved=0;dashed=1;dashPattern=8 8;flowAnimation=1;" edge="1" parent="1" source="j_-tF6pHI3zdOywG5t-4-1" target="j_-tF6pHI3zdOywG5t-4-2">
          <mxGeometry relative="1" as="geometry">
            <Array as="points">
              <mxPoint x="1188" y="405" />
              <mxPoint x="1188" y="83" />
            </Array>
          </mxGeometry>
        </mxCell>
        <mxCell id="j_-tF6pHI3zdOywG5t-4-4" value="JDBC &lt;br&gt;over Secured&lt;br&gt;&amp;nbsp;TCP&lt;br&gt;On Port&lt;br&gt;&amp;nbsp;1543&lt;br&gt;to THE &lt;br&gt;schema &lt;br&gt;in DBP01" style="edgeLabel;html=1;align=center;verticalAlign=middle;resizable=0;points=[];" vertex="1" connectable="0" parent="j_-tF6pHI3zdOywG5t-4-3">
          <mxGeometry x="0.1525" y="-5" relative="1" as="geometry">
            <mxPoint x="39" y="8" as="offset" />
          </mxGeometry>
        </mxCell>
        <mxCell id="j_-tF6pHI3zdOywG5t-4-15" value="Secured HTTP Call&amp;nbsp; via IAM user and AWS S3 SDK&lt;br&gt;to upload CSV files" style="edgeStyle=orthogonalEdgeStyle;rounded=1;orthogonalLoop=1;jettySize=auto;html=1;curved=0;flowAnimation=1;" edge="1" parent="1" source="j_-tF6pHI3zdOywG5t-4-1" target="j_-tF6pHI3zdOywG5t-4-9">
          <mxGeometry x="0.3342" y="-22" relative="1" as="geometry">
            <Array as="points">
              <mxPoint x="935" y="405" />
              <mxPoint x="935" y="110" />
              <mxPoint x="535" y="110" />
            </Array>
            <mxPoint as="offset" />
          </mxGeometry>
        </mxCell>
        <mxCell id="j_-tF6pHI3zdOywG5t-4-1" value="Spring Boot Code&lt;br&gt;&amp;nbsp;inside a container ,&lt;br&gt;&amp;nbsp;which runs &lt;br&gt;inside Cronjob to extract &lt;br&gt;and upload CSV to S3" style="shape=image;html=1;verticalAlign=top;verticalLabelPosition=bottom;labelBackgroundColor=#ffffff;imageAspect=0;aspect=fixed;image=https://cdn2.iconfinder.com/data/icons/boxicons-logos/24/bxl-spring-boot-128.png" vertex="1" parent="1">
          <mxGeometry x="979" y="341" width="128" height="128" as="geometry" />
        </mxCell>
        <mxCell id="j_-tF6pHI3zdOywG5t-4-2" value="&lt;span style=&quot;background-color: light-dark(#ffffff, var(--ge-dark-color, #121212));&quot;&gt;On Prem Oracle DB DBP01 THE&lt;/span&gt;" style="sketch=0;outlineConnect=0;fontColor=#232F3E;gradientColor=none;fillColor=#C925D1;strokeColor=none;dashed=0;verticalLabelPosition=bottom;verticalAlign=top;align=center;html=1;fontSize=12;fontStyle=0;aspect=fixed;pointerEvents=1;shape=mxgraph.aws4.rds_oracle_instance;" vertex="1" parent="1">
          <mxGeometry x="1012" y="44" width="66" height="66" as="geometry" />
        </mxCell>
        <mxCell id="j_-tF6pHI3zdOywG5t-4-5" value="&lt;span style=&quot;background-color: light-dark(#ffffff, var(--ge-dark-color, #121212));&quot;&gt;AWS Landing Zone OCIO&lt;/span&gt;" style="outlineConnect=0;dashed=0;verticalLabelPosition=bottom;verticalAlign=top;align=center;html=1;shape=mxgraph.aws3.virtual_private_cloud;fillColor=#F58534;gradientColor=none;" vertex="1" parent="1">
          <mxGeometry x="494.75" y="33" width="79.5" height="54" as="geometry" />
        </mxCell>
        <mxCell id="j_-tF6pHI3zdOywG5t-4-6" value="&lt;span style=&quot;background-color: light-dark(#ffffff, var(--ge-dark-color, #121212));&quot;&gt;Cloudfront CDN bucket &lt;br&gt;for frontend&lt;/span&gt;" style="sketch=0;points=[[0,0,0],[0.25,0,0],[0.5,0,0],[0.75,0,0],[1,0,0],[0,1,0],[0.25,1,0],[0.5,1,0],[0.75,1,0],[1,1,0],[0,0.25,0],[0,0.5,0],[0,0.75,0],[1,0.25,0],[1,0.5,0],[1,0.75,0]];outlineConnect=0;fontColor=#232F3E;fillColor=#7AA116;strokeColor=#ffffff;dashed=0;verticalLabelPosition=bottom;verticalAlign=top;align=center;html=1;fontSize=12;fontStyle=0;aspect=fixed;shape=mxgraph.aws4.resourceIcon;resIcon=mxgraph.aws4.s3;" vertex="1" parent="1">
          <mxGeometry x="275" y="143" width="78" height="78" as="geometry" />
        </mxCell>
        <mxCell id="j_-tF6pHI3zdOywG5t-4-13" style="edgeStyle=orthogonalEdgeStyle;rounded=1;orthogonalLoop=1;jettySize=auto;html=1;curved=0;flowAnimation=1;" edge="1" parent="1" source="j_-tF6pHI3zdOywG5t-4-7" target="j_-tF6pHI3zdOywG5t-4-8">
          <mxGeometry relative="1" as="geometry" />
        </mxCell>
        <mxCell id="j_-tF6pHI3zdOywG5t-4-14" value="JDBC over 5432" style="edgeLabel;html=1;align=center;verticalAlign=middle;resizable=0;points=[];rotation=270;" vertex="1" connectable="0" parent="j_-tF6pHI3zdOywG5t-4-13">
          <mxGeometry x="0.0093" relative="1" as="geometry">
            <mxPoint x="10" y="47" as="offset" />
          </mxGeometry>
        </mxCell>
        <mxCell id="j_-tF6pHI3zdOywG5t-4-7" value="&lt;span style=&quot;background-color: light-dark(#ffffff, var(--ge-dark-color, #121212));&quot;&gt;ECS Fargate &lt;br&gt;Serverless to Run &lt;br&gt;multiple&lt;br&gt;replicas of the&lt;br&gt;Nest/Node.js &lt;br&gt;API Container&lt;/span&gt;" style="sketch=0;points=[[0,0,0],[0.25,0,0],[0.5,0,0],[0.75,0,0],[1,0,0],[0,1,0],[0.25,1,0],[0.5,1,0],[0.75,1,0],[1,1,0],[0,0.25,0],[0,0.5,0],[0,0.75,0],[1,0.25,0],[1,0.5,0],[1,0.75,0]];outlineConnect=0;fontColor=#232F3E;fillColor=#ED7100;strokeColor=#ffffff;dashed=0;verticalLabelPosition=bottom;verticalAlign=top;align=center;html=1;fontSize=12;fontStyle=0;aspect=fixed;shape=mxgraph.aws4.resourceIcon;resIcon=mxgraph.aws4.fargate;" vertex="1" parent="1">
          <mxGeometry x="737" y="414" width="78" height="78" as="geometry" />
        </mxCell>
        <mxCell id="j_-tF6pHI3zdOywG5t-4-12" value="Import CSV files&lt;br&gt;&amp;nbsp;to RDS using aurora&lt;br&gt;s3 plugin" style="edgeStyle=orthogonalEdgeStyle;rounded=1;orthogonalLoop=1;jettySize=auto;html=1;curved=0;dashed=1;dashPattern=8 8;flowAnimation=1;" edge="1" parent="1" source="j_-tF6pHI3zdOywG5t-4-8" target="j_-tF6pHI3zdOywG5t-4-9">
          <mxGeometry x="-0.2403" y="27" relative="1" as="geometry">
            <mxPoint as="offset" />
          </mxGeometry>
        </mxCell>
        <mxCell id="j_-tF6pHI3zdOywG5t-4-8" value="&lt;span style=&quot;background-color: light-dark(#ffffff, var(--ge-dark-color, #121212));&quot;&gt;Aurora Postgis&lt;br&gt;Serverless V2&amp;nbsp;&lt;/span&gt;" style="sketch=0;points=[[0,0,0],[0.25,0,0],[0.5,0,0],[0.75,0,0],[1,0,0],[0,1,0],[0.25,1,0],[0.5,1,0],[0.75,1,0],[1,1,0],[0,0.25,0],[0,0.5,0],[0,0.75,0],[1,0.25,0],[1,0.5,0],[1,0.75,0]];outlineConnect=0;fontColor=#232F3E;fillColor=#C925D1;strokeColor=#ffffff;dashed=0;verticalLabelPosition=bottom;verticalAlign=top;align=center;html=1;fontSize=12;fontStyle=0;aspect=fixed;shape=mxgraph.aws4.resourceIcon;resIcon=mxgraph.aws4.aurora;" vertex="1" parent="1">
          <mxGeometry x="748" y="143" width="78" height="78" as="geometry" />
        </mxCell>
        <mxCell id="j_-tF6pHI3zdOywG5t-4-9" value="&lt;span style=&quot;background-color: rgb(255, 255, 255);&quot;&gt;Bucket Containing &lt;br&gt;CSV for import from FTA&lt;/span&gt;" style="sketch=0;points=[[0,0,0],[0.25,0,0],[0.5,0,0],[0.75,0,0],[1,0,0],[0,1,0],[0.25,1,0],[0.5,1,0],[0.75,1,0],[1,1,0],[0,0.25,0],[0,0.5,0],[0,0.75,0],[1,0.25,0],[1,0.5,0],[1,0.75,0]];outlineConnect=0;fontColor=#232F3E;fillColor=#7AA116;strokeColor=#ffffff;dashed=0;verticalLabelPosition=bottom;verticalAlign=top;align=center;html=1;fontSize=12;fontStyle=0;aspect=fixed;shape=mxgraph.aws4.resourceIcon;resIcon=mxgraph.aws4.s3;" vertex="1" parent="1">
          <mxGeometry x="496.25" y="143" width="78" height="78" as="geometry" />
        </mxCell>
        <mxCell id="j_-tF6pHI3zdOywG5t-4-21" style="edgeStyle=orthogonalEdgeStyle;rounded=1;orthogonalLoop=1;jettySize=auto;html=1;curved=0;flowAnimation=1;" edge="1" parent="1" source="j_-tF6pHI3zdOywG5t-4-20" target="j_-tF6pHI3zdOywG5t-4-7">
          <mxGeometry relative="1" as="geometry" />
        </mxCell>
        <mxCell id="j_-tF6pHI3zdOywG5t-4-20" value="" style="points=[];aspect=fixed;html=1;align=center;shadow=0;dashed=0;fillColor=#FF6A00;strokeColor=none;shape=mxgraph.alibaba_cloud.alb_application_load_balancer_02;" vertex="1" parent="1">
          <mxGeometry x="496.25" y="400.5" width="105" height="105" as="geometry" />
        </mxCell>
        <mxCell id="j_-tF6pHI3zdOywG5t-4-22" value="AWS ELB" style="rounded=1;whiteSpace=wrap;html=1;" vertex="1" parent="1">
          <mxGeometry x="506" y="505.5" width="88" height="22.5" as="geometry" />
        </mxCell>
        <mxCell id="j_-tF6pHI3zdOywG5t-4-23" value="" style="sketch=0;points=[[0,0,0],[0.25,0,0],[0.5,0,0],[0.75,0,0],[1,0,0],[0,1,0],[0.25,1,0],[0.5,1,0],[0.75,1,0],[1,1,0],[0,0.25,0],[0,0.5,0],[0,0.75,0],[1,0.25,0],[1,0.5,0],[1,0.75,0]];outlineConnect=0;fontColor=#232F3E;fillColor=#8C4FFF;strokeColor=#ffffff;dashed=0;verticalLabelPosition=bottom;verticalAlign=top;align=center;html=1;fontSize=12;fontStyle=0;aspect=fixed;shape=mxgraph.aws4.resourceIcon;resIcon=mxgraph.aws4.api_gateway;" vertex="1" parent="1">
          <mxGeometry x="507" y="286" width="78" height="78" as="geometry" />
        </mxCell>
        <mxCell id="j_-tF6pHI3zdOywG5t-4-24" style="edgeStyle=orthogonalEdgeStyle;rounded=1;orthogonalLoop=1;jettySize=auto;html=1;entryX=0.515;entryY=0.576;entryDx=0;entryDy=0;entryPerimeter=0;curved=0;dashed=1;dashPattern=8 8;flowAnimation=1;" edge="1" parent="1" source="j_-tF6pHI3zdOywG5t-4-23" target="fdkoNqw9oe1VA67Y62dj-26">
          <mxGeometry relative="1" as="geometry" />
        </mxCell>
        <mxCell id="j_-tF6pHI3zdOywG5t-4-27" style="edgeStyle=orthogonalEdgeStyle;rounded=1;orthogonalLoop=1;jettySize=auto;html=1;entryX=1;entryY=0.5;entryDx=0;entryDy=0;entryPerimeter=0;curved=0;dashed=1;dashPattern=8 8;flowAnimation=1;" edge="1" parent="1" source="j_-tF6pHI3zdOywG5t-4-25" target="j_-tF6pHI3zdOywG5t-4-6">
          <mxGeometry relative="1" as="geometry" />
        </mxCell>
        <mxCell id="j_-tF6pHI3zdOywG5t-4-25" value="&lt;span style=&quot;background-color: light-dark(#ffffff, var(--ge-dark-color, #121212));&quot;&gt;Cloudfront &lt;br&gt;to Serve static &lt;br&gt;frontend based on React&lt;/span&gt;" style="sketch=0;points=[[0,0,0],[0.25,0,0],[0.5,0,0],[0.75,0,0],[1,0,0],[0,1,0],[0.25,1,0],[0.5,1,0],[0.75,1,0],[1,1,0],[0,0.25,0],[0,0.5,0],[0,0.75,0],[1,0.25,0],[1,0.5,0],[1,0.75,0]];outlineConnect=0;fontColor=#232F3E;fillColor=#8C4FFF;strokeColor=#ffffff;dashed=0;verticalLabelPosition=bottom;verticalAlign=top;align=center;html=1;fontSize=12;fontStyle=0;aspect=fixed;shape=mxgraph.aws4.resourceIcon;resIcon=mxgraph.aws4.cloudfront;" vertex="1" parent="1">
          <mxGeometry x="264" y="414" width="78" height="78" as="geometry" />
        </mxCell>
        <mxCell id="j_-tF6pHI3zdOywG5t-4-26" style="edgeStyle=orthogonalEdgeStyle;rounded=1;orthogonalLoop=1;jettySize=auto;html=1;entryX=0;entryY=0.5;entryDx=0;entryDy=0;entryPerimeter=0;curved=0;dashed=1;dashPattern=8 8;flowAnimation=1;" edge="1" parent="1" source="j_-tF6pHI3zdOywG5t-4-25" target="j_-tF6pHI3zdOywG5t-4-23">
          <mxGeometry relative="1" as="geometry" />
        </mxCell>
        <mxCell id="j_-tF6pHI3zdOywG5t-4-28" value="" style="shape=actor;whiteSpace=wrap;html=1;" vertex="1" parent="1">
          <mxGeometry x="33" y="295" width="40" height="60" as="geometry" />
        </mxCell>
        <mxCell id="j_-tF6pHI3zdOywG5t-4-29" style="edgeStyle=orthogonalEdgeStyle;rounded=1;orthogonalLoop=1;jettySize=auto;html=1;entryX=0;entryY=0.5;entryDx=0;entryDy=0;entryPerimeter=0;curved=0;dashed=1;dashPattern=8 8;flowAnimation=1;" edge="1" parent="1" source="j_-tF6pHI3zdOywG5t-4-28" target="j_-tF6pHI3zdOywG5t-4-25">
          <mxGeometry relative="1" as="geometry" />
        </mxCell>
        <mxCell id="j_-tF6pHI3zdOywG5t-4-30" value="External Public&lt;br&gt;Users" style="rounded=1;whiteSpace=wrap;html=1;" vertex="1" parent="1">
          <mxGeometry x="11" y="364" width="88" height="43" as="geometry" />
        </mxCell>
      </root>
    </mxGraphModel>
  </diagram>
</mxfile>
